# Blender v2.75 (sub 0) OBJ File: 'arena.blend'
# www.blender.org
mtllib arena.mtl
o Cube_Cube.001
v 5.603400 2.268609 5.603400
v 0.490678 -0.026901 0.490678
v 5.603400 2.268609 -5.603400
v 0.490678 -0.026901 -0.490678
v -5.603400 2.268609 5.603400
v -0.490678 -0.026901 0.490678
v -5.603400 2.268609 -5.603400
v -0.490678 -0.026901 -0.490678
v 5.603400 -2.268609 5.603400
v 5.603400 -2.268609 -5.603400
v -5.603400 -2.268609 -5.603400
v -5.603400 -2.268609 5.603400
v 4.420766 -2.268609 4.420766
v 4.420766 -2.268609 -4.420766
v -4.420766 -2.268609 -4.420766
v -4.420766 -2.268609 4.420766
v 2.795515 -0.026901 2.795515
v 2.795515 -0.026901 -2.795515
v -2.795515 -0.026901 -2.795515
v -2.795515 -0.026901 2.795515
v 0.168263 -7.910988 0.168263
v 0.168263 -7.910988 -0.168263
v -0.168263 -7.910988 0.168263
v -0.168263 -7.910988 -0.168263
vn 1.000000 0.000000 0.000000
vn 0.000000 0.000000 -1.000000
vn -1.000000 0.000000 0.000000
vn 0.000000 0.000000 1.000000
vn 0.000000 1.000000 0.000000
vn 0.999200 -0.040900 0.000000
vn 0.000000 -1.000000 0.000000
vn -0.809600 -0.587000 0.000000
vn 0.000000 -0.587000 0.809600
vn 0.809600 -0.587000 0.000000
vn 0.000000 -0.587000 -0.809600
vn 0.000000 -0.040900 0.999200
vn 0.000000 -0.040900 -0.999200
vn -0.999200 -0.040900 0.000000
usemtl None
s off
f 10//1 3//1 1//1
f 11//2 7//2 3//2
f 12//3 5//3 7//3
f 9//4 1//4 5//4
f 3//5 7//5 5//5
f 2//6 21//6 22//6
f 14//7 10//7 9//7
f 15//7 11//7 10//7
f 16//7 12//7 11//7
f 13//7 9//7 12//7
f 18//8 14//8 13//8
f 19//9 15//9 14//9
f 20//10 16//10 15//10
f 17//11 13//11 16//11
f 4//7 18//7 17//7
f 8//7 19//7 18//7
f 6//7 20//7 19//7
f 2//7 17//7 20//7
f 24//7 22//7 21//7
f 6//12 23//12 21//12
f 4//13 22//13 24//13
f 8//14 24//14 23//14
f 9//1 10//1 1//1
f 10//2 11//2 3//2
f 11//3 12//3 7//3
f 12//4 9//4 5//4
f 1//5 3//5 5//5
f 4//6 2//6 22//6
f 13//7 14//7 9//7
f 14//7 15//7 10//7
f 15//7 16//7 11//7
f 16//7 13//7 12//7
f 17//8 18//8 13//8
f 18//9 19//9 14//9
f 19//10 20//10 15//10
f 20//11 17//11 16//11
f 2//7 4//7 17//7
f 4//7 8//7 18//7
f 8//7 6//7 19//7
f 6//7 2//7 20//7
f 23//7 24//7 21//7
f 2//12 6//12 21//12
f 8//13 4//13 24//13
f 6//14 8//14 23//14
